<svg width="42" height="42" viewBox="0 0 42 42" fill="none" xmlns="http://www.w3.org/2000/svg">
<path d="M36.2965 30.1315L36.069 29.848C34.2683 27.5713 32.7633 26.3865 31.4718 26.2308C30.3553 26.0785 29.2755 26.8503 28.1275 27.6448L26.9008 28.4113C26.7538 28.4848 26.6085 28.5443 26.472 28.5845C25.7545 28.7875 23.9433 28.9065 22.9178 27.9685C21.7243 26.8765 19.8728 24.878 18.4325 23.1315C17.057 21.3238 15.545 19.0698 14.7558 17.6505C14.089 16.4483 14.6473 14.7665 15.02 14.1435C15.0935 14.021 15.1898 13.9003 15.2965 13.7813L16.378 12.782C16.3938 12.7663 16.4008 12.747 16.4148 12.733C16.4253 12.7225 16.4428 12.726 16.455 12.7173C17.4315 11.893 18.4413 11.0443 18.5795 9.95403C18.7423 8.67303 17.946 6.94053 16.1418 4.66553L15.9213 4.38203C14.8048 2.95053 13.116 0.785784 10.6905 1.14278C9.73679 1.28453 8.88454 1.61003 8.00604 2.16128C7.99729 2.16653 7.99204 2.17703 7.98504 2.18228C7.97804 2.18753 7.96929 2.18753 7.96229 2.19278L6.73904 3.09928C6.72679 3.10628 6.71979 3.12203 6.70754 3.13253C6.69879 3.14128 6.68479 3.14303 6.67429 3.15178C6.53254 3.27078 6.39079 3.39328 6.25079 3.51928C5.01004 4.62528 2.32379 7.83653 4.15604 13.776C5.33904 17.612 7.77854 22.0885 11.2278 26.747L11.1945 26.775L13.0968 29.1445L13.1125 29.1323C16.8523 33.5563 20.6585 36.9758 24.1463 39.046C26.4738 40.4285 28.5073 40.8853 30.1803 40.8853C32.3818 40.8853 33.9585 40.0943 34.7495 39.5798L35.2465 39.2473C35.3025 39.2088 35.3428 39.1545 35.383 39.1055L36.4663 38.29C36.4785 38.2795 36.4855 38.2655 36.4978 38.255C36.503 38.2498 36.5118 38.2515 36.5188 38.2463C37.2888 37.5428 37.8225 36.806 38.1935 35.9328C39.1543 33.6945 37.434 31.5508 36.2965 30.1315ZM36.9073 35.3833C36.6185 36.0623 36.1968 36.6398 35.5878 37.1998L33.976 38.4125C32.5165 39.361 29.3963 40.5335 24.8638 37.842C21.376 35.7718 17.5365 32.2718 13.7583 27.72L12.7363 26.4285C9.17854 21.7105 6.67604 17.192 5.49479 13.363C3.96004 8.38428 5.89379 5.71378 7.18879 4.56053C7.32004 4.44153 7.45129 4.33128 7.58079 4.22103L7.58604 4.21578L8.76029 3.34603C9.47429 2.89453 10.1358 2.64253 10.897 2.52703C12.5228 2.28203 13.8458 3.99703 14.817 5.24303L15.0445 5.53178C17.0605 8.07453 17.2548 9.28378 17.1918 9.77728C17.1218 10.325 16.2888 11.0268 15.5538 11.6445L15.4505 11.732C15.447 11.7355 15.4453 11.7408 15.4418 11.7443C15.4365 11.7478 15.4313 11.7495 15.426 11.753L14.3078 12.7873C14.3008 12.7943 14.2973 12.803 14.2903 12.8118C14.2833 12.8205 14.2693 12.824 14.2623 12.8328C14.089 13.027 13.9403 13.2213 13.8195 13.4225C13.1913 14.4743 12.598 16.6478 13.5343 18.3295C14.3515 19.7995 15.9073 22.1218 17.337 23.9978C18.8315 25.8108 20.7373 27.8688 21.9728 28.9975C22.8985 29.8428 24.1865 30.1263 25.3013 30.1263C25.898 30.1263 26.4458 30.044 26.8605 29.9268C27.0793 29.8638 27.305 29.7728 27.5378 29.659C27.5518 29.652 27.5588 29.6398 27.5728 29.631C27.5798 29.6275 27.5903 29.6293 27.5973 29.624L28.8958 28.812C28.9378 28.784 28.9658 28.7473 29.0008 28.7123L29.0165 28.7298C29.8163 28.175 30.728 27.524 31.2985 27.6185C31.8043 27.6798 32.9523 28.1663 34.9718 30.716L35.2045 31.0083C36.188 32.235 37.5355 33.915 36.9073 35.3833Z" fill="white"/>
</svg>
